<svg width="60" height="60" viewBox="0 0 60 60" fill="none" xmlns="http://www.w3.org/2000/svg">
<g clip-path="url(#clip0_2212_374)">
<path d="M30 0C13.4314 0 0 13.4314 0 30C0 46.5686 13.4314 60 30 60C46.5686 60 60 46.5686 60 30C59.9819 13.439 46.561 0.0181452 30 0ZM30 58.0645C14.5004 58.0645 1.93548 45.4996 1.93548 30C1.93548 14.5004 14.5004 1.93548 30 1.93548C45.4996 1.93548 58.0645 14.5004 58.0645 30C58.0464 45.4921 45.4921 58.0464 30 58.0645Z" fill="#272727" fill-opacity="0.8"/>
<path d="M44.108 15.4445C43.9764 15.3808 43.8321 15.3477 43.6859 15.3477C43.5397 15.3477 43.3954 15.3808 43.2638 15.4445V15.4436L24.8361 24.3874C24.808 24.401 24.7916 24.43 24.7654 24.4465C24.639 24.5302 24.5308 24.6385 24.4471 24.7649C24.4306 24.791 24.4016 24.8074 24.388 24.8355L15.4432 43.2642C15.3555 43.4452 15.3264 43.6489 15.3598 43.8472C15.3932 44.0454 15.4876 44.2284 15.6298 44.3705C15.7719 44.5127 15.9549 44.6071 16.1531 44.6405C16.3514 44.674 16.5552 44.6448 16.7361 44.5571L35.1638 35.6132C35.1919 35.5997 35.2084 35.5707 35.2345 35.5542C35.3609 35.4705 35.4692 35.3622 35.5529 35.2358C35.5693 35.2097 35.5984 35.1933 35.6119 35.1652L44.5567 16.7374C44.6687 16.5065 44.6843 16.2405 44.6001 15.998C44.5159 15.7556 44.3389 15.5565 44.108 15.4445ZM18.4045 41.5958L25.5358 26.9036L33.0967 34.4645L18.4045 41.5958ZM34.469 33.0962L26.9032 25.5362L41.5945 18.4049L34.469 33.0962Z" fill="#272727" fill-opacity="0.8"/>
</g>
<defs>
<clipPath id="clip0_2212_374">
<rect width="60" height="60" fill="white"/>
</clipPath>
</defs>
</svg>
