<svg width="50" height="50" viewBox="0 0 50 50" fill="none" xmlns="http://www.w3.org/2000/svg">
<g clip-path="url(#clip0_2150_3995)">
<path d="M49.9998 4.965C50.0013 4.62885 49.9357 4.29577 49.8069 3.98527C49.6782 3.67477 49.4887 3.39307 49.2497 3.15668L46.8432 0.750032C46.6079 0.512145 46.3276 0.323351 46.0188 0.1946C45.7099 0.0658485 45.3786 -0.000296644 45.044 1.00006e-06H45.0357C44.7031 0.00020567 44.3739 0.0666322 44.0673 0.195405C43.7607 0.324179 43.4828 0.51272 43.2498 0.750032L32.3333 11.6666H10.8335V2.50002C10.8335 1.11925 9.71414 1.00006e-06 8.33345 1.00006e-06H6.6668C2.98665 0.00411436 0.00429647 2.98647 0.000183105 6.66661V43.5422C0.208731 47.1943 3.25065 50.0376 6.9085 49.9996H47.4998C48.8805 49.9996 49.9998 48.8803 49.9998 47.4997V14.1666C49.9998 12.7859 48.8805 11.6666 47.4998 11.6666H44.3332L49.2498 6.74995C49.4867 6.51681 49.6749 6.23901 49.8036 5.93261C49.9324 5.62622 49.999 5.29733 49.9998 4.965ZM29.8166 20.8332C29.7297 20.845 29.6411 20.8361 29.5583 20.8071C29.4754 20.7782 29.4006 20.73 29.34 20.6665C29.2788 20.6057 29.232 20.5319 29.2031 20.4505C29.1743 20.3692 29.1641 20.2824 29.1733 20.1965L29.4891 17.3633C29.5024 17.304 29.5191 17.2455 29.5392 17.1883L32.8216 20.4707C32.7675 20.4824 32.7183 20.5091 32.6616 20.5157L29.8166 20.8332ZM34.1824 19.4723L30.5357 15.8249L39.619 6.74164L43.264 10.3858L34.1824 19.4723ZM40.7941 5.56242L42.0299 4.32743L45.6732 7.97154L44.4382 9.20736L40.7941 5.56242ZM1.66684 6.66661C1.66963 3.90638 3.90656 1.66937 6.6668 1.66665H8.33345C8.79365 1.66665 9.16682 2.03974 9.16682 2.49994V35.833C9.16682 36.2932 8.79373 36.6663 8.33345 36.6663H6.6668C5.72048 36.666 4.78499 36.8676 3.92278 37.2576C3.06057 37.6476 2.29147 38.217 1.66684 38.9279V6.66661ZM47.4998 13.3332C47.96 13.3332 48.3332 13.7063 48.3332 14.1666V47.4997C48.3332 47.9599 47.9601 48.333 47.4998 48.333H6.9085C4.15748 48.3793 1.85284 46.2614 1.66684 43.5164V43.333C1.66963 40.5728 3.90656 38.3358 6.6668 38.333H8.33345C9.71414 38.333 10.8334 37.2138 10.8334 35.8331V13.3332H30.6665L28.7741 15.2257C28.2457 15.7463 27.9134 16.4333 27.8333 17.1707L27.5174 20.0098C27.4914 20.2867 27.5178 20.5659 27.5949 20.8331H13.3334C12.8732 20.8331 12.5 21.2062 12.5 21.6665C12.5 22.1267 12.8731 22.4998 13.3334 22.4998H15.8334V44.9996C15.8334 45.4598 16.2065 45.833 16.6668 45.833C17.1271 45.833 17.5002 45.4599 17.5002 44.9996V33.3331H26.6667V39.9997H20.8334C20.3732 39.9997 20.0001 40.3728 20.0001 40.833C20.0001 41.2932 20.3732 41.6663 20.8334 41.6663H37.4999C38.4204 41.6663 39.1666 40.9202 39.1666 39.9997V27.4998C39.1666 27.0396 38.7935 26.6665 38.3333 26.6665C37.8731 26.6665 37.4999 27.0395 37.4999 27.4998V31.6664H17.5001V22.4999H29.7567C29.8379 22.5 29.9192 22.4956 30 22.4865L32.8475 22.1624C33.5702 22.0804 34.2448 21.7592 34.7641 21.2499L42.6707 13.3333L47.4998 13.3332ZM37.4999 33.3331V39.9997H28.3333V33.3331H37.4999ZM48.0748 5.56826L46.8515 6.7924L43.2082 3.14911L44.4323 1.92497C44.5116 1.84359 44.6063 1.77883 44.7109 1.73448C44.8155 1.69013 44.9279 1.66707 45.0415 1.66665C45.1572 1.66694 45.2716 1.69022 45.3782 1.73515C45.4848 1.78008 45.5813 1.84575 45.6623 1.92835L48.0723 4.33335C48.1553 4.41504 48.2211 4.51248 48.2659 4.61994C48.3107 4.7274 48.3336 4.84273 48.3332 4.95916C48.3328 5.07277 48.3098 5.18517 48.2654 5.28977C48.2211 5.39436 48.1562 5.48905 48.0748 5.56826Z" fill="#272727"/>
</g>
<defs>
<clipPath id="clip0_2150_3995">
<rect width="50" height="50" fill="white"/>
</clipPath>
</defs>
</svg>
