<svg width="80" height="80" viewBox="0 0 80 80" fill="none" xmlns="http://www.w3.org/2000/svg">
<path d="M76.25 17.5H54.4688L47.1775 5.00001H48.5L72.0175 14.9025C72.3232 15.0311 72.6674 15.0331 72.9745 14.9079C73.2816 14.7827 73.5264 14.5407 73.655 14.235C73.7836 13.9293 73.7856 13.5851 73.6604 13.278C73.5352 12.9709 73.2932 12.7261 72.9875 12.5975L49.2375 2.59751C49.0832 2.53244 48.9174 2.49927 48.75 2.50001H31.25C31.0834 2.49961 30.9185 2.53277 30.765 2.59751L7.015 12.5975C6.7882 12.693 6.59463 12.8533 6.45855 13.0583C6.32246 13.2633 6.24992 13.5039 6.25 13.75V17.5H3.75C3.41848 17.5 3.10054 17.6317 2.86612 17.8661C2.6317 18.1005 2.5 18.4185 2.5 18.75V23.75C2.5 24.0815 2.6317 24.3995 2.86612 24.6339C3.10054 24.8683 3.41848 25 3.75 25V31.25C3.74621 32.5642 4.15803 33.846 4.92657 34.912C5.69512 35.9781 6.78104 36.7738 8.02908 37.1855C9.27713 37.5973 10.6234 37.6038 11.8754 37.2044C13.1274 36.8049 14.2211 36.0197 15 34.9613C15.5749 35.748 16.3273 36.388 17.1961 36.8292C18.0649 37.2705 19.0256 37.5004 20 37.5004C20.9744 37.5004 21.9351 37.2705 22.8039 36.8292C23.6727 36.388 24.4251 35.748 25 34.9613C25.5749 35.748 26.3273 36.388 27.1961 36.8292C28.0649 37.2705 29.0256 37.5004 30 37.5004C30.9744 37.5004 31.9351 37.2705 32.8039 36.8292C33.6727 36.388 34.4251 35.748 35 34.9613C35.5749 35.748 36.3273 36.388 37.1961 36.8292C38.0649 37.2705 39.0256 37.5004 40 37.5004C40.9744 37.5004 41.9351 37.2705 42.8039 36.8292C43.6727 36.388 44.4251 35.748 45 34.9613C45.5749 35.748 46.3273 36.388 47.1961 36.8292C48.0649 37.2705 49.0256 37.5004 50 37.5004C50.9744 37.5004 51.9351 37.2705 52.8039 36.8292C53.6727 36.388 54.4251 35.748 55 34.9613C55.5749 35.748 56.3273 36.388 57.1961 36.8292C58.0649 37.2705 59.0256 37.5004 60 37.5004C60.9744 37.5004 61.9351 37.2705 62.8039 36.8292C63.6727 36.388 64.4251 35.748 65 34.9613C65.5769 35.7459 66.3297 36.3843 67.1981 36.8253C68.0664 37.2662 69.0261 37.4973 70 37.5V75H36.875V48.75C36.875 48.4185 36.7433 48.1006 36.5089 47.8661C36.2745 47.6317 35.9565 47.5 35.625 47.5H15C14.6685 47.5 14.3505 47.6317 14.1161 47.8661C13.8817 48.1006 13.75 48.4185 13.75 48.75V75H10V41.0725C10 40.741 9.8683 40.423 9.63388 40.1886C9.39946 39.9542 9.08152 39.8225 8.75 39.8225C8.41848 39.8225 8.10054 39.9542 7.86612 40.1886C7.6317 40.423 7.5 40.741 7.5 41.0725V76.25C7.5 76.5815 7.6317 76.8995 7.86612 77.1339C8.10054 77.3683 8.41848 77.5 8.75 77.5H71.25C71.5815 77.5 71.8995 77.3683 72.1339 77.1339C72.3683 76.8995 72.5 76.5815 72.5 76.25V36.97C73.6133 36.4841 74.5609 35.6844 75.2269 34.6685C75.8929 33.6526 76.2484 32.4647 76.25 31.25V28.75C76.25 28.4185 76.1183 28.1005 75.8839 27.8661C75.6495 27.6317 75.3315 27.5 75 27.5C74.6685 27.5 74.3505 27.6317 74.1161 27.8661C73.8817 28.1005 73.75 28.4185 73.75 28.75V31.25C73.75 32.2446 73.3549 33.1984 72.6516 33.9017C71.9484 34.6049 70.9946 35 70 35C69.0054 35 68.0516 34.6049 67.3484 33.9017C66.6451 33.1984 66.25 32.2446 66.25 31.25V25H76.25C76.5815 25 76.8995 24.8683 77.1339 24.6339C77.3683 24.3995 77.5 24.0815 77.5 23.75V18.75C77.5 18.4185 77.3683 18.1005 77.1339 17.8661C76.8995 17.6317 76.5815 17.5 76.25 17.5ZM16.25 75V50H34.375V75H16.25ZM44.2825 5.00001L51.5737 17.5H28.4262L35.7175 5.00001H44.2825ZM8.75 14.58L31.5 5.00001H32.82L25.5312 17.5H8.75V14.58ZM10 35C9.00544 35 8.05161 34.6049 7.34835 33.9017C6.64509 33.1984 6.25 32.2446 6.25 31.25V25H13.75V31.25C13.75 32.2446 13.3549 33.1984 12.6517 33.9017C11.9484 34.6049 10.9946 35 10 35ZM20 35C19.0054 35 18.0516 34.6049 17.3483 33.9017C16.6451 33.1984 16.25 32.2446 16.25 31.25V25H23.75V31.25C23.75 32.2446 23.3549 33.1984 22.6517 33.9017C21.9484 34.6049 20.9946 35 20 35ZM30 35C29.0054 35 28.0516 34.6049 27.3483 33.9017C26.6451 33.1984 26.25 32.2446 26.25 31.25V25H33.75V31.25C33.75 32.2446 33.3549 33.1984 32.6517 33.9017C31.9484 34.6049 30.9946 35 30 35ZM40 35C39.0054 35 38.0516 34.6049 37.3484 33.9017C36.6451 33.1984 36.25 32.2446 36.25 31.25V25H43.75V31.25C43.75 32.2446 43.3549 33.1984 42.6516 33.9017C41.9484 34.6049 40.9946 35 40 35ZM50 35C49.0054 35 48.0516 34.6049 47.3484 33.9017C46.6451 33.1984 46.25 32.2446 46.25 31.25V25H53.75V31.25C53.75 32.2446 53.3549 33.1984 52.6516 33.9017C51.9484 34.6049 50.9946 35 50 35ZM63.75 31.25C63.75 32.2446 63.3549 33.1984 62.6516 33.9017C61.9484 34.6049 60.9946 35 60 35C59.0054 35 58.0516 34.6049 57.3484 33.9017C56.6451 33.1984 56.25 32.2446 56.25 31.25V25H63.75V31.25ZM75 22.5H5V20H75V22.5Z" fill="black"/>
<path d="M53.75 40C52.093 40.002 50.5045 40.6611 49.3328 41.8328C48.1611 43.0044 47.502 44.593 47.5 46.25V47.5H43.75C43.4303 47.4995 43.1225 47.6215 42.89 47.841C42.6575 48.0605 42.5179 48.3608 42.5 48.68L41.25 71.18C41.2405 71.3499 41.2658 71.52 41.3243 71.6799C41.3828 71.8397 41.4734 71.9859 41.5904 72.1095C41.7075 72.2331 41.8485 72.3315 42.0049 72.3986C42.1613 72.4658 42.3298 72.5003 42.5 72.5H65C65.1702 72.5003 65.3387 72.4658 65.4951 72.3986C65.6515 72.3315 65.7926 72.2331 65.9096 72.1095C66.0266 71.9859 66.1172 71.8397 66.1757 71.6799C66.2343 71.52 66.2595 71.3499 66.25 71.18L65.8338 63.68C65.8152 63.3485 65.6657 63.0379 65.4181 62.8166C65.1706 62.5953 64.8453 62.4814 64.5138 62.5C64.1822 62.5186 63.8717 62.6681 63.6504 62.9156C63.4291 63.1632 63.3152 63.4885 63.3338 63.82L63.6788 70H43.8213L44.9325 50H47.5V53.75C47.5 54.0815 47.6317 54.3995 47.8661 54.6339C48.1005 54.8683 48.4185 55 48.75 55C49.0815 55 49.3995 54.8683 49.6339 54.6339C49.8683 54.3995 50 54.0815 50 53.75V50H57.5V53.75C57.5 54.0815 57.6317 54.3995 57.8661 54.6339C58.1005 54.8683 58.4185 55 58.75 55C59.0815 55 59.3995 54.8683 59.6339 54.6339C59.8683 54.3995 60 54.0815 60 53.75V50H62.5675L63.0575 58.82C63.0667 58.9842 63.1081 59.1449 63.1794 59.293C63.2508 59.4412 63.3506 59.5738 63.4731 59.6834C63.5957 59.793 63.7387 59.8773 63.8938 59.9316C64.049 59.986 64.2134 60.0092 64.3775 60C64.5417 59.9908 64.7024 59.9494 64.8505 59.8781C64.9987 59.8068 65.1313 59.707 65.2409 59.5844C65.3505 59.4618 65.4348 59.3189 65.4891 59.1637C65.5435 59.0085 65.5667 58.8442 65.5575 58.68L65.0025 48.68C64.9846 48.3603 64.8447 48.0597 64.6116 47.8402C64.3786 47.6206 64.0702 47.4989 63.75 47.5H60V46.25C59.998 44.593 59.3389 43.0044 58.1672 41.8328C56.9956 40.6611 55.407 40.002 53.75 40ZM50 47.5V46.25C50 45.2554 50.3951 44.3016 51.0984 43.5984C51.8016 42.8951 52.7554 42.5 53.75 42.5C54.7446 42.5 55.6984 42.8951 56.4017 43.5984C57.1049 44.3016 57.5 45.2554 57.5 46.25V47.5H50Z" fill="black"/>
<path d="M53.75 56.25C52.7611 56.25 51.7944 56.5432 50.9721 57.0927C50.1499 57.6421 49.509 58.423 49.1306 59.3366C48.7522 60.2502 48.6531 61.2555 48.8461 62.2255C49.039 63.1954 49.5152 64.0863 50.2145 64.7855C50.9137 65.4848 51.8046 65.961 52.7745 66.1539C53.7445 66.3469 54.7498 66.2478 55.6634 65.8694C56.577 65.491 57.3579 64.8501 57.9073 64.0279C58.4568 63.2056 58.75 62.2389 58.75 61.25C58.75 59.9239 58.2232 58.6521 57.2855 57.7145C56.3479 56.7768 55.0761 56.25 53.75 56.25ZM53.75 63.75C53.2555 63.75 52.7722 63.6034 52.3611 63.3287C51.95 63.054 51.6295 62.6635 51.4403 62.2067C51.2511 61.7499 51.2016 61.2472 51.298 60.7623C51.3945 60.2773 51.6326 59.8319 51.9822 59.4822C52.3319 59.1326 52.7773 58.8945 53.2623 58.798C53.7472 58.7016 54.2499 58.7511 54.7067 58.9403C55.1635 59.1295 55.554 59.45 55.8287 59.8611C56.1034 60.2722 56.25 60.7555 56.25 61.25C56.25 61.913 55.9866 62.5489 55.5178 63.0178C55.0489 63.4866 54.413 63.75 53.75 63.75ZM30 57.5C29.6685 57.5 29.3505 57.6317 29.1161 57.8661C28.8817 58.1005 28.75 58.4185 28.75 58.75V63.75C28.75 64.0815 28.8817 64.3995 29.1161 64.6339C29.3505 64.8683 29.6685 65 30 65C30.3315 65 30.6495 64.8683 30.8839 64.6339C31.1183 64.3995 31.25 64.0815 31.25 63.75V58.75C31.25 58.4185 31.1183 58.1005 30.8839 57.8661C30.6495 57.6317 30.3315 57.5 30 57.5Z" fill="black"/>
</svg>
