<svg width="50" height="50" viewBox="0 0 50 50" fill="none" xmlns="http://www.w3.org/2000/svg">
<g clip-path="url(#clip0_2156_4033)">
<path d="M28.708 11.5435C28.7857 11.5975 28.8753 11.6318 28.9691 11.6436C29.063 11.6553 29.1583 11.6442 29.2469 11.6112L31.6195 10.7266C31.7315 10.6849 31.828 10.6099 31.8961 10.5118C31.9643 10.4137 32.0008 10.2971 32.0008 10.1776V5.9949C32.0008 5.89793 31.9767 5.80249 31.9307 5.71713C31.8847 5.63176 31.8182 5.55914 31.7373 5.50577C31.6563 5.45241 31.5634 5.41996 31.4668 5.41135C31.3702 5.40274 31.273 5.41823 31.1839 5.45642L28.8105 6.47468C28.7052 6.51988 28.6154 6.595 28.5523 6.69073C28.4892 6.78646 28.4556 6.8986 28.4556 7.01326L28.4563 11.0624C28.4563 11.2544 28.5504 11.4341 28.708 11.5435ZM30.8289 6.88386V9.77078L29.628 10.2185L29.6275 7.39929L30.8289 6.88386ZM31.7562 12.2671C31.6805 12.2128 31.593 12.1773 31.5009 12.1637C31.4088 12.15 31.3148 12.1585 31.2267 12.1885L28.854 12.993C28.738 13.0323 28.6373 13.107 28.5659 13.2065C28.4946 13.3061 28.4562 13.4255 28.4563 13.5479V17.8713C28.4562 17.9617 28.4772 18.051 28.5174 18.132C28.5576 18.213 28.6161 18.2836 28.6882 18.3382C28.7602 18.3929 28.844 18.4301 28.9329 18.4469C29.0217 18.4638 29.1133 18.4599 29.2004 18.4354L31.573 17.7699C31.6961 17.7354 31.8045 17.6616 31.8817 17.5597C31.959 17.4579 32.0008 17.3336 32.0008 17.2057V12.7433C32.0008 12.6502 31.9786 12.5585 31.936 12.4756C31.8935 12.3928 31.8318 12.3213 31.7562 12.2671ZM30.8289 16.7615L29.6281 17.0983V13.9678L30.8289 13.5606V16.7615ZM31.7962 26.3583C31.732 26.3033 31.6567 26.2629 31.5755 26.2397C31.4942 26.2165 31.4089 26.2112 31.3254 26.224L28.9527 26.5905C28.8145 26.6119 28.6884 26.682 28.5974 26.7882C28.5063 26.8944 28.4562 27.0297 28.4563 27.1696V31.4929C28.4562 31.5746 28.4733 31.6554 28.5063 31.73C28.5394 31.8047 28.5877 31.8717 28.6481 31.9266C28.7085 31.9815 28.7798 32.0232 28.8573 32.049C28.9347 32.0747 29.0168 32.084 29.098 32.0762L31.4707 31.8488C31.6158 31.8349 31.7505 31.7675 31.8485 31.6596C31.9465 31.5517 32.0008 31.4112 32.0008 31.2655V26.8031C32.0008 26.7186 31.9825 26.6351 31.9471 26.5583C31.9118 26.4815 31.8603 26.4133 31.7962 26.3583ZM30.8289 30.7331L29.6281 30.8482V27.672L30.8289 27.4866V30.7332V30.7331ZM31.7761 19.3137C31.7061 19.2588 31.6246 19.2206 31.5377 19.202C31.4507 19.1833 31.3607 19.1847 31.2744 19.206L28.9018 19.7915C28.7746 19.8229 28.6616 19.8959 28.5809 19.999C28.5001 20.1022 28.4562 20.2294 28.4563 20.3603V24.6803C28.4562 24.7664 28.4752 24.8515 28.5118 24.9294C28.5484 25.0074 28.6017 25.0763 28.668 25.1313C28.7343 25.1863 28.8119 25.226 28.8953 25.2476C28.9787 25.2691 29.0659 25.272 29.1505 25.256L31.5231 24.8095C31.6574 24.7843 31.7786 24.7129 31.8658 24.6078C31.953 24.5027 32.0008 24.3704 32.0008 24.2338V19.7749C32.0008 19.686 31.9805 19.5982 31.9416 19.5183C31.9027 19.4384 31.8461 19.3685 31.7761 19.3137ZM30.8289 23.7478L29.6281 23.9738V20.8192L30.8289 20.5229V23.7477V23.7478ZM24.4298 25.9323C24.496 25.9873 24.5736 26.027 24.657 26.0486C24.7403 26.0701 24.8274 26.0731 24.912 26.0572L27.0183 25.6615C27.1525 25.6363 27.2738 25.565 27.3611 25.4598C27.4483 25.3547 27.4961 25.2224 27.4961 25.0857V20.884C27.4961 20.7951 27.4759 20.7073 27.437 20.6274C27.3981 20.5475 27.3415 20.4775 27.2716 20.4226C27.2016 20.3678 27.1201 20.3296 27.0332 20.311C26.9462 20.2923 26.8562 20.2937 26.7699 20.315L24.6637 20.8342C24.5365 20.8655 24.4234 20.9385 24.3426 21.0417C24.2618 21.1448 24.2179 21.272 24.218 21.403V25.4813C24.218 25.6556 24.2956 25.8211 24.4298 25.9323ZM25.3898 21.8621L26.3242 21.6318V24.5997L25.3898 24.7752V21.8621ZM24.8039 32.4821C24.8224 32.4821 24.8411 32.4812 24.8598 32.4795L26.9654 32.2779C27.1105 32.264 27.2452 32.1966 27.3432 32.0887C27.4412 31.9809 27.4955 31.8403 27.4955 31.6946V27.5029C27.4955 27.4184 27.4772 27.3349 27.4419 27.2582C27.4066 27.1814 27.3551 27.1132 27.291 27.0582C27.2268 27.0032 27.1516 26.9627 27.0703 26.9395C26.9891 26.9163 26.9038 26.911 26.8203 26.9238L24.7146 27.2485C24.5763 27.2698 24.4502 27.3399 24.3591 27.4462C24.268 27.5524 24.218 27.6877 24.218 27.8276V31.8962C24.218 32.0516 24.2798 32.2006 24.3896 32.3104C24.4995 32.4203 24.6485 32.4821 24.8039 32.4821ZM25.3898 28.3301L26.3236 28.186V31.162L25.3898 31.2514V28.3301ZM24.4498 19.5303C24.5219 19.5849 24.6056 19.6222 24.6944 19.6391C24.7833 19.6559 24.8748 19.652 24.9619 19.6276L27.0682 19.0376C27.1913 19.0031 27.2997 18.9293 27.377 18.8274C27.4543 18.7256 27.4961 18.6013 27.4961 18.4734V14.2718C27.4961 14.1787 27.4739 14.0869 27.4314 14.0041C27.3889 13.9213 27.3273 13.8498 27.2516 13.7956C27.176 13.7413 27.0885 13.7059 26.9964 13.6922C26.9043 13.6785 26.8103 13.6869 26.7222 13.7168L24.6159 14.4302C24.4999 14.4694 24.3991 14.5441 24.3277 14.6437C24.2563 14.7432 24.218 14.8626 24.218 14.9851V19.0636C24.218 19.154 24.2389 19.2432 24.2791 19.3241C24.3193 19.4051 24.3778 19.4757 24.4498 19.5303V19.5303ZM25.3898 15.4053L26.3242 15.0888V18.0291L25.3898 18.2908V15.4053ZM24.4692 13.1199C24.5468 13.1739 24.6363 13.2083 24.73 13.2203C24.8238 13.2322 24.919 13.2212 25.0076 13.1884L27.1139 12.4073C27.226 12.3657 27.3228 12.2908 27.3911 12.1926C27.4594 12.0944 27.4961 11.9776 27.4961 11.858L27.4968 7.92586C27.4967 7.8289 27.4727 7.73346 27.4267 7.64809C27.3807 7.56272 27.3143 7.4901 27.2333 7.43672C27.1524 7.38333 27.0595 7.35087 26.9629 7.34222C26.8663 7.33358 26.7691 7.34903 26.68 7.38718L24.573 8.29031C24.4677 8.33549 24.3778 8.4106 24.3147 8.50633C24.2516 8.60207 24.218 8.71422 24.218 8.82888V12.6389C24.218 12.8307 24.3118 13.0104 24.4692 13.1199ZM25.3898 9.21531L26.3247 8.81453L26.3243 11.4502L25.3898 11.7968V9.21531ZM7.32109 23.2036C7.39762 23.2577 7.48603 23.2927 7.57888 23.3056C7.67174 23.3184 7.76632 23.3088 7.85469 23.2775L9.56904 22.6713C9.68325 22.6309 9.78214 22.5561 9.85209 22.4572C9.92205 22.3583 9.95963 22.2402 9.95967 22.119L9.96016 18.9219C9.96019 18.8252 9.93629 18.73 9.89059 18.6448C9.84489 18.5596 9.7788 18.4871 9.69824 18.4337C9.61775 18.3802 9.52526 18.3474 9.42903 18.3384C9.3328 18.3293 9.23583 18.3443 9.14678 18.3818L7.43193 19.1041C7.32567 19.1488 7.23497 19.2239 7.1712 19.32C7.10743 19.416 7.07342 19.5287 7.07344 19.644V22.7252C7.07344 22.9154 7.16572 23.0937 7.32109 23.2036ZM8.24531 20.033L8.78818 19.8043L8.78789 21.7046L8.24531 21.8964V20.033ZM10.7876 21.9744C10.8643 22.0285 10.9528 22.0635 11.0458 22.0762C11.1388 22.089 11.2335 22.0792 11.3219 22.0476L13.2963 21.3449C13.4102 21.3044 13.5089 21.2295 13.5786 21.1307C13.6483 21.0319 13.6858 20.9139 13.6857 20.7929V17.3485C13.6858 17.2517 13.6618 17.1565 13.6161 17.0712C13.5703 16.9859 13.5041 16.9133 13.4234 16.8599C13.3427 16.8065 13.2501 16.7739 13.1537 16.765C13.0573 16.7561 12.9603 16.7713 12.8712 16.8091L10.8968 17.6457C10.7908 17.6905 10.7004 17.7656 10.6368 17.8616C10.5733 17.9575 10.5394 18.0701 10.5395 18.1851V21.4957C10.5395 21.5895 10.562 21.682 10.6052 21.7653C10.6484 21.8486 10.7109 21.9203 10.7876 21.9744ZM11.7113 18.5731L12.5139 18.2331V20.3795L11.7113 20.6652V18.5731ZM13.4699 28.238C13.4025 28.183 13.3236 28.1438 13.2391 28.1231C13.1546 28.1024 13.0666 28.1008 12.9813 28.1183L11.0076 28.5257C10.8756 28.5529 10.757 28.6249 10.6718 28.7294C10.5866 28.834 10.5401 28.9647 10.5401 29.0995V32.6325C10.5401 32.7162 10.558 32.799 10.5927 32.8752C10.6273 32.9514 10.6779 33.0192 10.741 33.0742C10.8041 33.1292 10.8783 33.1701 10.9585 33.194C11.0387 33.2179 11.1231 33.2243 11.2061 33.2129L13.1798 32.9409C13.32 32.9216 13.4485 32.8522 13.5415 32.7455C13.6345 32.6388 13.6857 32.5021 13.6857 32.3605V28.6923C13.6857 28.6053 13.6664 28.5194 13.629 28.4408C13.5917 28.3623 13.5374 28.293 13.4699 28.2381V28.238ZM12.5139 31.8498L11.712 31.9602V29.5768L12.5139 29.4114V31.8499V31.8498ZM7.73887 33.6902L9.45264 33.4555C9.59295 33.4363 9.72155 33.367 9.81466 33.2602C9.90776 33.1535 9.95907 33.0167 9.95908 32.8751V29.459C9.95909 29.372 9.93975 29.2862 9.90245 29.2077C9.86515 29.1291 9.81084 29.0599 9.74346 29.005C9.67614 28.9499 9.59738 28.9106 9.51292 28.8898C9.42846 28.8691 9.34044 28.8674 9.25527 28.885L7.5415 29.237C7.40933 29.2641 7.29058 29.3361 7.2053 29.4406C7.12002 29.5452 7.07344 29.676 7.07344 29.8109V33.1097C7.07344 33.1934 7.09137 33.2761 7.126 33.3522C7.16063 33.4284 7.21116 33.4962 7.2742 33.5512C7.33724 33.6062 7.41133 33.6471 7.49148 33.6711C7.57163 33.695 7.65598 33.7016 7.73887 33.6902ZM8.24531 30.2886L8.78721 30.1773V32.3638L8.24531 32.4381V30.2886ZM7.29795 28.3806C7.36785 28.4355 7.44933 28.4737 7.5362 28.4924C7.62306 28.5111 7.71304 28.5097 7.79932 28.4885L9.51309 28.067C9.64036 28.0357 9.75347 27.9627 9.83433 27.8595C9.91518 27.7564 9.95911 27.6291 9.95908 27.498V24.0819C9.95909 23.9899 9.93743 23.8992 9.89586 23.8171C9.85429 23.7351 9.79398 23.6639 9.7198 23.6095C9.64563 23.5551 9.55968 23.5189 9.46892 23.5038C9.37816 23.4888 9.28513 23.4953 9.19736 23.5229L7.48359 24.0618C7.36465 24.0992 7.26073 24.1736 7.18697 24.2741C7.1132 24.3746 7.07343 24.4961 7.07344 24.6208V27.9196C7.07344 28.0997 7.15625 28.2697 7.29795 28.3807V28.3806ZM8.24531 25.0507L8.78721 24.8803V27.0387L8.24531 27.172V25.0507ZM13.4461 22.4325C13.3718 22.3781 13.2858 22.3419 13.195 22.327C13.1041 22.312 13.011 22.3187 12.9232 22.3465L10.9495 22.9703C10.8308 23.0078 10.7271 23.0822 10.6535 23.1827C10.5799 23.2832 10.5402 23.4045 10.5402 23.529V27.064C10.5402 27.1529 10.5604 27.2407 10.5993 27.3206C10.6382 27.4005 10.6948 27.4705 10.7648 27.5254C10.8347 27.5802 10.9163 27.6184 11.0032 27.637C11.0901 27.6557 11.1801 27.6543 11.2664 27.633L13.2401 27.1468C13.3673 27.1154 13.4804 27.0423 13.5612 26.9392C13.642 26.8361 13.6858 26.7088 13.6858 26.5778V22.9053C13.6858 22.7185 13.5969 22.5429 13.4462 22.4326L13.4461 22.4325ZM12.5139 26.1186L11.712 26.3162V23.9582L12.5139 23.7047V26.1185V26.1186ZM48.8717 45.8974H45.4051V5.83631C45.4051 5.72154 45.3714 5.6093 45.3081 5.51352C45.2449 5.41774 45.1549 5.34264 45.0494 5.29754L33.9097 0.535525C33.8369 0.504353 33.7585 0.488281 33.6793 0.488281C33.6002 0.488281 33.5218 0.504353 33.449 0.535525L22.3092 5.29754C22.2036 5.34262 22.1137 5.41772 22.0504 5.5135C21.9872 5.60928 21.9535 5.72153 21.9535 5.83631V14.1489L17.0113 12.0362C16.9385 12.005 16.8602 11.989 16.781 11.989C16.7018 11.989 16.6235 12.005 16.5507 12.0362L4.95059 16.9949C4.84504 17.04 4.75506 17.1151 4.69183 17.2109C4.6286 17.3066 4.5949 17.4189 4.59492 17.5337V45.8974H1.12832C0.97292 45.8974 0.823884 45.9592 0.714 46.0691C0.604115 46.1789 0.542383 46.328 0.542383 46.4834V48.9259C0.542383 49.0813 0.604115 49.2303 0.714 49.3402C0.823884 49.4501 0.97292 49.5118 1.12832 49.5118H48.8717C49.0271 49.5118 49.1761 49.4501 49.286 49.3402C49.3959 49.2303 49.4576 49.0813 49.4576 48.9259V46.4834C49.4576 46.328 49.3959 46.1789 49.286 46.0691C49.1761 45.9592 49.0271 45.8974 48.8717 45.8974ZM44.2332 45.8974H34.2653V1.96199L44.2332 6.22293V45.8974ZM33.0934 1.96199V45.8974H30.8737V36.545L31.183 36.5156C31.2596 36.5083 31.334 36.486 31.402 36.45C31.47 36.414 31.5302 36.3649 31.5792 36.3056C31.6282 36.2462 31.6651 36.1778 31.6876 36.1043C31.7102 36.0307 31.7181 35.9534 31.7107 35.8768C31.7035 35.8002 31.6813 35.7257 31.6453 35.6577C31.6093 35.5897 31.5602 35.5295 31.5009 35.4804C31.4415 35.4314 31.3731 35.3946 31.2995 35.372C31.2259 35.3495 31.1486 35.3417 31.072 35.3491L25.0356 35.9236C24.8811 35.9385 24.7388 36.0142 24.64 36.134C24.5412 36.2537 24.494 36.4078 24.5087 36.5623C24.5234 36.7169 24.5989 36.8593 24.7185 36.9583C24.8381 37.0572 24.9921 37.1047 25.1467 37.0902L25.345 37.0714V45.8976H23.1254V6.22302L33.0934 1.96199ZM29.7019 36.6565V45.8974H26.517V36.9596L29.7019 36.6565ZM21.9535 45.8974H17.3669V13.4627L21.9535 15.4233V45.8974ZM5.7668 17.9204L16.195 13.4627V45.8974H13.7452V38.4005L14.0546 38.371C14.1312 38.3637 14.2056 38.3414 14.2736 38.3054C14.3416 38.2693 14.4018 38.2202 14.4508 38.1609C14.4998 38.1016 14.5366 38.0332 14.5592 37.9597C14.5818 37.8861 14.5896 37.8088 14.5823 37.7322C14.5518 37.41 14.2653 37.1729 13.9436 37.2045L7.90723 37.7791C7.7527 37.794 7.61041 37.8697 7.51162 37.9894C7.41282 38.1092 7.36559 38.2633 7.3803 38.4178C7.39502 38.5724 7.47046 38.7148 7.59007 38.8137C7.70969 38.9127 7.86369 38.9602 8.01826 38.9457L8.2166 38.9268V45.8975H5.7668V17.9204ZM12.5733 38.5121V45.8974H9.38848V38.8152L12.5733 38.5121ZM48.2856 48.3399H1.71426V47.0693H48.2857V48.3399H48.2856ZM38.6632 43.4574V7.38269C38.6632 7.22729 38.7249 7.07826 38.8348 6.96837C38.9447 6.85849 39.0937 6.79675 39.2491 6.79675C39.4045 6.79675 39.5536 6.85849 39.6634 6.96837C39.7733 7.07826 39.8351 7.22729 39.8351 7.38269V43.4574C39.8351 43.6128 39.7733 43.7618 39.6634 43.8717C39.5536 43.9816 39.4045 44.0433 39.2491 44.0433C39.0937 44.0433 38.9447 43.9816 38.8348 43.8717C38.7249 43.7618 38.6632 43.6128 38.6632 43.4574ZM41.4482 43.4574V8.57322C41.4482 8.41782 41.51 8.26878 41.6199 8.1589C41.7297 8.04901 41.8788 7.98728 42.0342 7.98728C42.1896 7.98728 42.3386 8.04901 42.4485 8.1589C42.5584 8.26878 42.6201 8.41782 42.6201 8.57322V43.4574C42.6201 43.6128 42.5584 43.7618 42.4485 43.8717C42.3386 43.9816 42.1896 44.0433 42.0342 44.0433C41.8788 44.0433 41.7297 43.9816 41.6199 43.8717C41.51 43.7618 41.4482 43.6128 41.4482 43.4574ZM35.8783 43.4574V6.19226C35.8783 6.03686 35.9401 5.88783 36.0499 5.77794C36.1598 5.66806 36.3089 5.60633 36.4643 5.60633C36.6197 5.60633 36.7687 5.66806 36.8786 5.77794C36.9885 5.88783 37.0502 6.03686 37.0502 6.19226V43.4574C37.0502 43.6128 36.9885 43.7618 36.8786 43.8717C36.7687 43.9816 36.6197 44.0433 36.4643 44.0433C36.3089 44.0433 36.1598 43.9816 36.0499 43.8717C35.9401 43.7618 35.8783 43.6128 35.8783 43.4574Z" fill="#272727"/>
</g>
<defs>
<clipPath id="clip0_2156_4033">
<rect width="50" height="50" fill="white"/>
</clipPath>
</defs>
</svg>
