<svg width="80" height="80" viewBox="0 0 80 80" fill="none" xmlns="http://www.w3.org/2000/svg">
<g clip-path="url(#clip0_2265_3581)">
<path d="M46.6667 30.2988L76.0333 36.1322C78.4 36.6322 80 38.6322 80 40.9988V74.9988C80 77.7655 77.7667 79.9988 75 79.9988H45C45.9333 79.9988 46.6667 79.2655 46.6667 78.3322V76.6655H75C75.9 76.6655 76.6667 75.9322 76.6667 74.9988V40.9988C76.6667 40.2322 76.1333 39.5322 75.3667 39.3655L46.6667 33.6988V30.2988Z" fill="black"/>
<path d="M65 46.6662C65.9333 46.6662 66.6666 47.3995 66.6666 48.3328C66.6666 49.2662 65.9333 49.9995 65 49.9995H58.3333C57.4 49.9995 56.6666 49.2662 56.6666 48.3328C56.6666 47.3995 57.4 46.6662 58.3333 46.6662H65ZM65 56.6662C65.9333 56.6662 66.6666 57.3995 66.6666 58.3328C66.6666 59.2662 65.9333 59.9995 65 59.9995H58.3333C57.4 59.9995 56.6666 59.2662 56.6666 58.3328C56.6666 57.3995 57.4 56.6662 58.3333 56.6662H65ZM65 66.6662C65.9333 66.6662 66.6666 67.3995 66.6666 68.3328C66.6666 69.2662 65.9333 69.9995 65 69.9995H58.3333C57.4 69.9995 56.6666 69.2662 56.6666 68.3328C56.6666 67.3995 57.4 66.6662 58.3333 66.6662H65ZM46.6666 78.3328C46.6666 79.2662 45.9333 79.9995 45 79.9995C44.0666 79.9995 43.3333 79.2662 43.3333 78.3328V31.6662C43.3333 31.1662 43.5666 30.6995 43.9333 30.3662C44.3333 30.0662 44.8333 29.9328 45.3333 30.0328L46.6666 30.2995V76.6662V78.3328Z" fill="black"/>
<path d="M43.3333 76.666V78.3327C43.3333 79.266 44.0667 79.9994 45 79.9994H31.6667C32.6 79.9994 33.3333 79.266 33.3333 78.3327V76.666H43.3333ZM35 16.666C35.9333 16.666 36.6667 17.3993 36.6667 18.3327C36.6667 19.266 35.9333 19.9993 35 19.9993H28.3333C27.4 19.9993 26.6667 19.266 26.6667 18.3327C26.6667 17.3993 27.4 16.666 28.3333 16.666H35ZM36.6667 28.3327C36.6667 29.266 35.9333 29.9994 35 29.9994H28.3333C27.4 29.9994 26.6667 29.266 26.6667 28.3327C26.6667 27.3994 27.4 26.666 28.3333 26.666H35C35.9333 26.666 36.6667 27.3994 36.6667 28.3327ZM35 36.666C35.9333 36.666 36.6667 37.3994 36.6667 38.3327C36.6667 39.266 35.9333 39.9994 35 39.9994H28.3333C27.4 39.9994 26.6667 39.266 26.6667 38.3327C26.6667 37.3994 27.4 36.666 28.3333 36.666H35ZM35 46.666C35.9333 46.666 36.6667 47.3994 36.6667 48.3327C36.6667 49.266 35.9333 49.9994 35 49.9994H28.3333C27.4 49.9994 26.6667 49.266 26.6667 48.3327C26.6667 47.3994 27.4 46.666 28.3333 46.666H35ZM20 48.3327C20 49.266 19.2667 49.9994 18.3333 49.9994H11.6667C10.7333 49.9994 10 49.266 10 48.3327C10 47.3994 10.7333 46.666 11.6667 46.666H18.3333C19.2667 46.666 20 47.3994 20 48.3327ZM18.3333 16.666C19.2667 16.666 20 17.3993 20 18.3327C20 19.266 19.2667 19.9993 18.3333 19.9993H11.6667C10.7333 19.9993 10 19.266 10 18.3327C10 17.3993 10.7333 16.666 11.6667 16.666H18.3333ZM18.3333 26.666C19.2667 26.666 20 27.3994 20 28.3327C20 29.266 19.2667 29.9994 18.3333 29.9994H11.6667C10.7333 29.9994 10 29.266 10 28.3327C10 27.3994 10.7333 26.666 11.6667 26.666H18.3333ZM18.3333 36.666C19.2667 36.666 20 37.3994 20 38.3327C20 39.266 19.2667 39.9994 18.3333 39.9994H11.6667C10.7333 39.9994 10 39.266 10 38.3327C10 37.3994 10.7333 36.666 11.6667 36.666H18.3333ZM30 61.666C30 60.7327 29.2333 59.9994 28.3333 59.9994H18.3333C17.4 59.9994 16.6667 60.7327 16.6667 61.666V76.666H13.3333V61.666C13.3333 58.8994 15.5667 56.666 18.3333 56.666H28.3333C31.1 56.666 33.3333 58.8994 33.3333 61.666V76.666H30V61.666Z" fill="black"/>
<path d="M16.6666 76.666H33.3333V78.3327C33.3333 79.266 32.6 79.9993 31.6666 79.9993H15C14.0666 79.9993 13.3333 79.266 13.3333 78.3327V76.666H16.6666Z" fill="black"/>
<path d="M5.83333 0.666459L42.4667 6.23313C44.9 6.63313 46.6667 8.69979 46.6667 11.1665V30.2998L45.3333 30.0331C44.8333 29.9331 44.3333 30.0665 43.9333 30.3665C43.5667 30.6998 43.3333 31.1665 43.3333 31.6665V11.1665C43.3333 10.3331 42.7333 9.63312 41.9333 9.49979L5.3 3.96646C5.2 3.93313 5.1 3.93313 5 3.93313C4.6 3.93313 4.23333 4.06646 3.93333 4.33313C3.53333 4.66646 3.33333 5.09979 3.33333 5.59979V74.9998C3.33333 75.9331 4.1 76.6665 5 76.6665H13.3333V78.3331C13.3333 79.2665 14.0667 79.9998 15 79.9998H5C2.23333 79.9998 0 77.7665 0 74.9998V5.59979C0 4.13313 0.633333 2.73313 1.76667 1.79979C2.9 0.833126 4.36667 0.433126 5.83333 0.666459Z" fill="black"/>
</g>
<defs>
<clipPath id="clip0_2265_3581">
<rect width="80" height="80" fill="white"/>
</clipPath>
</defs>
</svg>
