<svg width="80" height="80" viewBox="0 0 80 80" fill="none" xmlns="http://www.w3.org/2000/svg">
<g clip-path="url(#clip0_2265_3574)">
<path d="M79.9237 78.4119L68.205 47.5416C68.1077 47.2853 67.9236 47.0712 67.6847 46.9366L55.2025 39.9044L58.8467 34.1263C61.0833 30.5773 62.2656 26.4759 62.2656 22.2656C62.2656 9.98826 52.2774 0 40.0001 0C27.7227 0 17.7345 9.98826 17.7345 22.2656C17.7345 26.477 18.9173 30.5785 21.1551 34.1266L24.7984 39.9048L12.3157 46.9366C12.0768 47.0712 11.8926 47.2853 11.7953 47.5416L0.0765496 78.4119C-0.00876011 78.637 -0.0226823 78.8829 0.0366753 79.1162C0.096033 79.3496 0.225791 79.5589 0.408314 79.7159C0.590837 79.8729 0.817271 79.9699 1.05684 79.9937C1.29641 80.0175 1.5375 79.9669 1.74733 79.8489L20.586 69.2355L39.4248 79.8489C39.6003 79.9478 39.7985 79.9997 40 79.9997C40.2015 79.9997 40.3996 79.9478 40.5752 79.8489L59.4139 69.2355L78.2526 79.8489C78.4624 79.9672 78.7036 80.018 78.9433 79.9943C79.183 79.9707 79.4096 79.8737 79.5922 79.7166C79.7748 79.5595 79.9046 79.35 79.9639 79.1166C80.0233 78.8831 80.0092 78.6371 79.9237 78.4119ZM41.1721 60.736C41.9173 60.4726 42.5517 59.9651 42.9722 59.2958C43.0318 59.2021 53.008 43.3843 53.008 43.3843L58.0891 67.2917L41.1721 76.8223V60.736ZM23.1376 32.8762C21.1362 29.7028 20.0784 26.0337 20.0784 22.2654C20.0784 11.2804 29.0152 2.34359 40.0002 2.34359C50.9852 2.34359 59.9221 11.2804 59.9221 22.2654C59.9221 26.0329 58.8646 29.7023 56.8644 32.8762C56.708 33.1241 41.2671 57.6104 40.9977 58.0333C40.9952 58.0369 40.993 58.0407 40.9907 58.0443C40.7733 58.388 40.4032 58.5935 40.0002 58.5935C39.5969 58.5935 39.2251 58.3871 39.0074 58.0449C38.8508 57.7966 23.3792 33.262 23.1429 32.8848L23.1376 32.8762ZM13.8357 48.7702L24.7601 42.616L22.857 51.5697C22.8206 51.7406 22.8229 51.9175 22.8636 52.0873C22.9044 52.2572 22.9827 52.4158 23.0927 52.5516C23.2027 52.6873 23.3416 52.7967 23.4993 52.8718C23.6571 52.947 23.8296 52.9858 24.0043 52.9857C24.2726 52.9853 24.5326 52.8929 24.741 52.7239C24.9494 52.555 25.0935 52.3196 25.1493 52.0572L26.9926 43.3851L37.0271 59.2989C37.4493 59.9663 38.0835 60.4724 38.828 60.7358V76.8227L21.9113 67.2919L24.1749 56.6421C24.2069 56.4915 24.209 56.3362 24.181 56.1849C24.1529 56.0335 24.0954 55.8892 24.0116 55.7602C23.9278 55.6311 23.8194 55.5198 23.6925 55.4326C23.5657 55.3454 23.423 55.2841 23.2724 55.2521C23.1219 55.22 22.9665 55.2178 22.8152 55.2458C22.6638 55.2738 22.5194 55.3314 22.3903 55.4152C22.2613 55.499 22.1499 55.6074 22.0628 55.7343C21.9756 55.8612 21.9144 56.004 21.8824 56.1546L19.5498 67.1289L3.41607 76.2186L13.8357 48.7702ZM60.4505 67.1291L55.2407 42.6159L66.1645 48.7702L76.5844 76.2186L60.4505 67.1291Z" fill="black"/>
<path d="M52.8907 22.2656C52.8907 15.1578 47.1079 9.375 40.0001 9.375C32.8923 9.375 27.1095 15.1578 27.1095 22.2656C27.1095 29.3734 32.8923 35.1562 40.0001 35.1562C47.1079 35.1562 52.8907 29.3734 52.8907 22.2656ZM29.4532 22.2656C29.4532 16.45 34.1845 11.7188 40.0001 11.7188C45.8157 11.7188 50.547 16.45 50.547 22.2656C50.547 28.0812 45.8157 32.8125 40.0001 32.8125C34.1845 32.8125 29.4532 28.0812 29.4532 22.2656Z" fill="black"/>
<path d="M48.2032 22.2656C48.2032 17.7425 44.5232 14.0625 40.0001 14.0625C35.477 14.0625 31.797 17.7425 31.797 22.2656C31.797 26.7887 35.477 30.4688 40.0001 30.4688C44.5232 30.4688 48.2032 26.7887 48.2032 22.2656ZM34.1407 22.2656C34.1407 19.0347 36.7692 16.4062 40.0001 16.4062C43.2311 16.4062 45.8595 19.0347 45.8595 22.2656C45.8595 25.4966 43.2311 28.125 40.0001 28.125C36.7692 28.125 34.1407 25.4966 34.1407 22.2656Z" fill="black"/>
</g>
<defs>
<clipPath id="clip0_2265_3574">
<rect width="80" height="80" fill="white"/>
</clipPath>
</defs>
</svg>
