<svg width="80" height="80" viewBox="0 0 80 80" fill="none" xmlns="http://www.w3.org/2000/svg">
<path d="M76 12H58.6667V6.66667C58.6622 2.98633 55.6803 0.0045 52 0H28C24.3197 0.0045 21.3378 2.98633 21.3333 6.66667V12H4C1.791 12 0 13.791 0 16V45.6797C0.00395977 46.5051 0.262055 47.3092 0.739184 47.9827C1.21631 48.6563 1.88932 49.1665 2.66667 49.444V68C2.66667 70.209 4.45767 72 6.66667 72H73.3333C75.5423 72 77.3333 70.209 77.3333 68V49.4453C78.1108 49.1676 78.7838 48.6571 79.261 47.9833C79.7381 47.3096 79.9961 46.5052 80 45.6797V16C80 13.791 78.209 12 76 12ZM24 6.66667C24 4.45767 25.791 2.66667 28 2.66667H52C54.209 2.66667 56 4.45767 56 6.66667V12H53.3333V6.66667C53.3333 6.31305 53.1929 5.97391 52.9428 5.72386C52.6928 5.47381 52.3536 5.33333 52 5.33333H28C27.6464 5.33333 27.3072 5.47381 27.0572 5.72386C26.8071 5.97391 26.6667 6.31305 26.6667 6.66667V12H24V6.66667ZM50.6667 12H29.3333V8H50.6667V12ZM74.6667 68C74.6667 68.3536 74.5262 68.6928 74.2761 68.9428C74.0261 69.1929 73.687 69.3333 73.3333 69.3333H6.66667C6.31305 69.3333 5.97391 69.1929 5.72386 68.9428C5.47381 68.6928 5.33333 68.3536 5.33333 68V49.9023L34.6667 53.948V57.3333C34.6667 59.5423 36.4577 61.3333 38.6667 61.3333H41.3333C43.5423 61.3333 45.3333 59.5423 45.3333 57.3333V53.9478L74.6667 49.9023V68ZM42.6667 57.3333C42.6667 57.687 42.5262 58.0261 42.2761 58.2761C42.0261 58.5262 41.687 58.6667 41.3333 58.6667H38.6667C38.313 58.6667 37.9739 58.5262 37.7239 58.2761C37.4738 58.0261 37.3333 57.687 37.3333 57.3333V49.3333C37.3333 48.9797 37.4738 48.6406 37.7239 48.3905C37.9739 48.1405 38.313 48 38.6667 48H41.3333C41.687 48 42.0261 48.1405 42.2761 48.3905C42.5262 48.6406 42.6667 48.9797 42.6667 49.3333V57.3333ZM77.3333 45.6797C77.3337 46.0012 77.2179 46.312 77.0072 46.5549C76.7965 46.7977 76.5052 46.9563 76.1868 47.0013L75.817 47.0522L45.3333 51.2557V49.3333C45.3333 47.1243 43.5423 45.3333 41.3333 45.3333H38.6667C36.4577 45.3333 34.6667 47.1243 34.6667 49.3333V51.2558L3.8145 47.0013C3.49593 46.9565 3.2043 46.7981 2.99336 46.5552C2.78241 46.3123 2.66639 46.0014 2.66667 45.6797V16C2.66667 15.6464 2.80714 15.3072 3.05719 15.0572C3.30724 14.8071 3.64638 14.6667 4 14.6667H76C76.3536 14.6667 76.6928 14.8071 76.9428 15.0572C77.1929 15.3072 77.3333 15.6464 77.3333 16V45.6797Z" fill="black"/>
</svg>
