<svg width="30" height="30" viewBox="0 0 30 30" fill="none" xmlns="http://www.w3.org/2000/svg">
<path d="M4.58215 13.8892C4.06439 13.8907 3.55762 14.0387 3.12047 14.3161C2.68332 14.5936 2.33366 14.9891 2.11193 15.457C1.89021 15.9249 1.80548 16.446 1.86756 16.96C1.92963 17.474 2.13597 17.96 2.46271 18.3616L9.4279 26.894C9.67624 27.2023 9.99458 27.447 10.3565 27.6076C10.7184 27.7683 11.1133 27.8402 11.5086 27.8176C12.3541 27.7722 13.1173 27.3199 13.604 26.5763L28.0724 3.27486C28.0748 3.27096 28.0773 3.26712 28.0798 3.26332C28.2156 3.05488 28.1716 2.6418 27.8913 2.3823C27.8144 2.31104 27.7236 2.25629 27.6247 2.22142C27.5257 2.18656 27.4207 2.17232 27.3161 2.17958C27.2114 2.18684 27.1094 2.21544 27.0162 2.26363C26.923 2.31182 26.8407 2.37857 26.7743 2.45978C26.7691 2.46616 26.7638 2.47245 26.7583 2.47865L12.1666 18.965C12.1111 19.0278 12.0437 19.0788 11.9682 19.1153C11.8928 19.1518 11.8109 19.1729 11.7272 19.1774C11.6436 19.1819 11.5598 19.1698 11.4809 19.1417C11.402 19.1136 11.3294 19.07 11.2675 19.0137L6.42479 14.6068C5.92183 14.1457 5.26445 13.8897 4.58215 13.8892Z" fill="white"/>
</svg>
