<svg width="30" height="30" viewBox="0 0 30 30" fill="none" xmlns="http://www.w3.org/2000/svg">
<path d="M4.58203 13.8892C4.06427 13.8907 3.5575 14.0387 3.12035 14.3161C2.6832 14.5936 2.33354 14.9891 2.11181 15.457C1.89009 15.9249 1.80536 16.446 1.86744 16.96C1.92951 17.474 2.13585 17.96 2.46259 18.3616L9.42778 26.894C9.67612 27.2023 9.99446 27.447 10.3563 27.6076C10.7182 27.7683 11.1132 27.8402 11.5085 27.8176C12.3539 27.7722 13.1172 27.3199 13.6038 26.5763L28.0723 3.27486C28.0747 3.27096 28.0772 3.26712 28.0797 3.26332C28.2155 3.05488 28.1714 2.6418 27.8912 2.3823C27.8142 2.31104 27.7235 2.25629 27.6246 2.22142C27.5256 2.18656 27.4206 2.17232 27.316 2.17958C27.2113 2.18684 27.1093 2.21544 27.0161 2.26363C26.9229 2.31182 26.8406 2.37857 26.7742 2.45978C26.769 2.46616 26.7636 2.47245 26.7581 2.47865L12.1665 18.965C12.111 19.0278 12.0435 19.0788 11.9681 19.1153C11.8927 19.1518 11.8108 19.1729 11.7271 19.1774C11.6434 19.1819 11.5597 19.1698 11.4808 19.1417C11.4019 19.1136 11.3293 19.07 11.2674 19.0137L6.42466 14.6068C5.92171 14.1457 5.26433 13.8897 4.58203 13.8892Z" fill="black"/>
</svg>
