<svg width="50" height="50" viewBox="0 0 50 50" fill="none" xmlns="http://www.w3.org/2000/svg">
<g clip-path="url(#clip0_2156_4021)">
<path d="M9.06252 28.4368C8.75002 28.4368 8.35939 28.2025 8.28127 27.8118L7.26564 23.7493C7.18752 23.3587 7.42189 22.89 7.81252 22.8118C8.20314 22.7337 8.67189 22.9681 8.75001 23.3587L9.76564 27.4212C9.84377 27.8118 9.60939 28.2806 9.21877 28.3587C9.21877 28.4368 9.14064 28.4368 9.06252 28.4368Z" fill="#272727"/>
<path d="M6.95313 28.4371H3.43751C2.26564 28.4371 1.25001 27.8902 0.546885 26.9527C-0.078115 26.0933 -0.15624 25.0777 0.15626 24.062C0.859385 22.2652 2.89064 21.4839 6.32814 21.7183C7.34376 21.7964 8.28126 22.3433 8.67189 23.2027C9.14064 23.9839 8.90626 24.6089 8.75001 24.9214C8.28126 25.7808 7.10939 26.1714 5.00001 26.2495C4.60939 26.2495 4.21876 25.937 4.21876 25.4683C4.21876 24.9995 4.53126 24.6871 5.00001 24.6871C7.03126 24.6089 7.34376 24.2183 7.42189 24.1402C7.42189 24.1402 7.42188 24.0621 7.34376 23.9058C7.10938 23.5152 6.71876 23.2808 6.25001 23.2808C4.45314 23.1245 2.18751 23.2808 1.71876 24.6089C1.48439 25.2339 1.71876 25.7808 1.95314 26.0152C2.34376 26.4839 2.89063 26.7964 3.51563 26.7964H7.03126C7.50001 26.7964 7.81251 27.187 7.81251 27.5777C7.81251 27.9683 7.42188 28.4371 6.95313 28.4371ZM40.9375 28.4371H40.7031C40.3125 28.3589 40 27.8902 40.1563 27.4996L41.1719 23.437C41.25 23.0464 41.7188 22.7339 42.1094 22.8902C42.5 22.9683 42.8125 23.437 42.6563 23.8277L41.6406 27.8902C41.6406 28.2027 41.25 28.4371 40.9375 28.4371Z" fill="#272727"/>
<path d="M46.5625 28.4371H43.0469C42.5781 28.4371 42.2656 28.0464 42.2656 27.6558C42.2656 27.2652 42.6563 26.8746 43.0469 26.8746H46.5625C47.1875 26.8746 47.8125 26.5621 48.125 26.0933C48.2813 25.8589 48.5938 25.312 48.3594 24.687C47.8906 23.3589 45.625 23.2027 43.8281 23.3589C43.3594 23.3589 42.8906 23.6714 42.7344 23.9839C42.6563 24.1402 42.6563 24.2183 42.6563 24.2183C42.6563 24.2183 42.9688 24.6871 45.1563 24.7652C45.625 24.7652 45.9375 25.1558 45.9375 25.5464C45.9375 26.0152 45.5469 26.3277 45.1563 26.3277C43.0469 26.2496 41.875 25.8589 41.4063 24.9995C41.25 24.687 41.0156 24.062 41.4844 23.2808C41.9531 22.4214 42.8125 21.8745 43.8281 21.7964C47.2656 21.562 49.2969 22.3433 50 24.1402C50.3906 25.0777 50.2344 26.1714 49.6094 27.0308C48.75 27.8902 47.7344 28.4371 46.5625 28.4371Z" fill="#272727"/>
<path d="M3.90625 34.375C3.59375 34.375 3.28125 34.2188 3.20312 33.9063L0.46875 26.7969C0.3125 26.4062 0.46875 26.0156 0.859375 25.7813C1.25 25.625 1.64063 25.7031 1.875 26.0156C2.1875 26.5625 2.8125 26.875 3.4375 26.875H46.5625C47.1875 26.875 47.8125 26.5625 48.125 26.0156C48.3594 25.7031 48.75 25.5469 49.1406 25.7813C49.5312 25.9375 49.6875 26.4062 49.5312 26.7969L46.7969 33.9063C46.6406 34.2969 46.1719 34.5312 45.7812 34.375C45.3906 34.2188 45.1562 33.75 45.3125 33.3594L47.1875 28.4375C46.9531 28.5156 46.7188 28.5156 46.4844 28.5156H3.4375C3.20313 28.5156 2.96875 28.5156 2.73438 28.4375L4.60938 33.3594C4.76562 33.75 4.53125 34.2188 4.14063 34.375H3.90625ZM38.125 49.2969H11.875C10.2344 49.2969 8.75 48.2812 8.125 46.7188L8.04688 46.4063C7.89062 46.0156 8.125 45.5469 8.51562 45.3906C8.90625 45.2344 9.375 45.4688 9.53125 45.8594L9.60938 46.1719C9.92188 47.1094 10.8594 47.7344 11.875 47.7344H38.125C39.1406 47.7344 40 47.1094 40.3906 46.1719L40.4687 45.9375C40.625 45.5469 41.0937 45.3125 41.4844 45.4688C41.875 45.625 42.1094 46.0938 41.9531 46.4844L41.875 46.7969C41.3281 48.2812 39.7656 49.2969 38.125 49.2969ZM8.75 44.6094C5.07812 44.6094 2.65625 42.0313 2.1875 37.6563C2.10938 37.0313 2.34375 36.4062 2.73438 35.9375C3.28125 35.3125 4.14062 35 5 35.2344C5.39062 35.3125 5.85938 35.3125 6.32813 35.2344C6.79688 35.1562 7.26562 35.0781 7.73438 34.9219C8.51562 34.7656 9.29688 34.6094 10.0781 34.6094C11.6406 34.6094 12.6563 35.4688 13.0469 37.1875C13.5938 39.6875 13.2812 41.875 12.2656 43.2031C11.4844 44.0625 10.3125 44.6094 8.75 44.6094ZM4.60938 36.7188C4.375 36.7188 4.14062 36.7969 3.98438 37.0313C3.90625 37.0313 3.75 37.2656 3.82813 37.5C4.0625 39.6094 4.92188 43.0469 8.82812 43.0469C9.84375 43.0469 10.625 42.7344 11.0938 42.1094C11.875 41.1719 12.0312 39.375 11.6406 37.4219C11.4062 36.1719 10.8594 36.0938 10.2344 36.0938C9.6875 36.0938 8.98438 36.25 8.28125 36.4062C7.8125 36.4844 7.26562 36.6406 6.79688 36.7188C6.09375 36.7969 5.46875 36.7969 4.84375 36.7188H4.60938ZM41.25 44.6094C39.7656 44.6094 38.5156 44.0625 37.7344 43.0469C36.6406 41.7188 36.3281 39.5313 36.9531 37.0313C37.3437 35.3125 38.2812 34.4531 39.9219 34.4531C40.625 34.4531 41.4062 34.6094 42.2656 34.7656C42.7344 34.8438 43.2031 35 43.6719 35.0781C44.2188 35.1563 44.6875 35.1563 45 35.0781C45.9375 34.9219 46.7187 35.1562 47.3437 35.7812C47.8125 36.25 47.9687 36.875 47.8906 37.5C47.3437 42.0312 44.9219 44.6094 41.25 44.6094ZM39.8438 36.0938C39.2188 36.0938 38.6719 36.1719 38.4375 37.4219C37.9688 39.375 38.2031 41.1719 38.9844 42.1094C39.4531 42.7344 40.2344 43.0469 41.25 43.0469C45.1562 43.0469 46.0156 39.5312 46.25 37.5C46.25 37.2656 46.1719 37.0312 46.0938 36.9531C45.8594 36.7188 45.5469 36.6406 45.2344 36.7188C44.6875 36.875 43.9844 36.875 43.2812 36.7188C42.8125 36.6406 42.2656 36.5625 41.7969 36.4062C41.0156 36.25 40.3906 36.0938 39.8438 36.0938ZM25 25.0781C20.5469 25.0781 16.875 21.4063 16.875 16.9531C16.875 16.4063 16.9531 15.8594 17.0312 15.3125C17.1094 14.9219 17.4219 14.6875 17.8125 14.6875H32.1875C32.5781 14.6875 32.8906 14.9219 32.9688 15.3125C33.0469 15.8594 33.125 16.4844 33.125 16.9531C33.125 21.4844 29.4531 25.0781 25 25.0781ZM18.5156 16.25C18.5156 16.4844 18.4375 16.7188 18.4375 16.9531C18.4375 20.5469 21.4062 23.5156 25 23.5156C28.5938 23.5156 31.5625 20.5469 31.5625 16.9531C31.5625 16.7188 31.5625 16.4844 31.4844 16.25H18.5156Z" fill="#272727"/>
<path d="M34.5313 16.25H15.5469C15 16.25 14.5313 16.0156 14.2188 15.5469C13.9063 15.1562 13.8281 14.6094 14.0625 14.1406C14.2969 13.5938 14.5313 13.125 15 12.7344C15.7031 12.0312 16.6406 11.6406 17.7344 11.6406H32.5C34.1406 11.6406 35.5469 12.6563 36.0938 14.2188C36.25 14.6875 36.1719 15.2344 35.9375 15.625C35.4688 16.0156 35 16.25 34.5313 16.25ZM17.5781 13.2031C16.9531 13.2031 16.4063 13.4375 16.0156 13.8281C15.7813 14.0625 15.625 14.375 15.4688 14.6875L34.4531 14.6094C34.1406 13.75 33.2813 13.125 32.3438 13.125H17.5781V13.2031Z" fill="#272727"/>
<path d="M33.2031 13.2029H16.7969C16.3281 13.2029 16.0156 12.8904 16.0156 12.4217V12.031C16.0156 9.29667 17.2656 6.71855 19.4531 4.99979C19.7656 4.76542 20.3125 4.76542 20.5469 5.15604C20.7813 5.46854 20.7031 5.93729 20.3906 6.24979C18.6719 7.57792 17.6563 9.53104 17.5781 11.7185H32.4219C32.3438 9.84354 31.5625 8.1248 30.2344 6.8748C30.0781 6.71855 29.8438 6.48417 29.6094 6.32792C29.2969 6.09355 29.2188 5.54667 29.4531 5.23417C29.6875 4.92167 30.2344 4.84354 30.5469 5.07792C30.8594 5.31229 31.0938 5.54667 31.3281 5.78104C33.0469 7.49979 33.9844 9.76542 33.9844 12.1092V12.4998C33.9844 12.8904 33.6719 13.2029 33.2031 13.2029Z" fill="#272727"/>
<path d="M26.9531 8.35938C26.4844 8.35938 26.1719 8.04688 26.1719 7.57812V3.4375C26.1719 2.8125 25.625 2.26562 25 2.26562C24.375 2.26562 23.8281 2.8125 23.8281 3.4375V7.57812C23.8281 8.04688 23.5156 8.35938 23.0469 8.35938C22.5781 8.35938 22.2656 8.04688 22.2656 7.57812V3.4375C22.2656 1.95312 23.5156 0.703125 25 0.703125C26.4844 0.703125 27.7344 1.95312 27.7344 3.4375V7.57812C27.7344 7.96875 27.4219 8.35938 26.9531 8.35938Z" fill="#272727"/>
</g>
<defs>
<clipPath id="clip0_2156_4021">
<rect width="50" height="50" fill="white"/>
</clipPath>
</defs>
</svg>
