<svg width="80" height="80" viewBox="0 0 80 80" fill="none" xmlns="http://www.w3.org/2000/svg">
<g clip-path="url(#clip0_2265_3569)">
<path d="M64.8601 49.3872L68.8501 46.4872C70.009 45.6471 70.8717 44.4611 71.3142 43.0998C71.7567 41.7385 71.7561 40.2719 71.3126 38.911L69.7876 34.2235C69.5128 33.3807 69.5128 32.4725 69.7876 31.6297L71.3126 26.941C71.7572 25.5803 71.7583 24.1135 71.3157 22.7522C70.8732 21.3908 70.0098 20.2051 68.8501 19.366L64.8601 16.4672C64.1401 15.9422 63.6126 15.2172 63.3351 14.3697L61.8138 9.67846C61.3729 8.31649 60.5112 7.12951 59.3528 6.28831C58.1945 5.44711 56.7991 4.99506 55.3675 4.99721H50.4375C49.5512 4.99894 48.6874 4.71829 47.9713 4.19596L43.9838 1.29846V1.29596C42.8266 0.453308 41.4318 -0.000448915 40.0003 3.33266e-07C38.5687 0.000449582 37.1743 0.455082 36.0176 1.29846L32.0276 4.19596C31.3119 4.71811 30.4485 4.99876 29.5626 4.99721H24.6313C23.1996 4.99445 21.8039 5.44643 20.6456 6.28798C19.4873 7.12954 18.6261 8.31719 18.1863 9.67972L16.6638 14.3697C16.391 15.213 15.8569 15.9477 15.1388 16.4672L11.1513 19.3635C9.99119 20.2029 9.12761 21.389 8.68504 22.7509C8.24248 24.1127 8.24379 25.5799 8.6888 26.941L10.2126 31.6285C10.4876 32.4772 10.4876 33.3735 10.2126 34.2235L8.68755 38.911C8.24294 40.272 8.24182 41.7391 8.68436 43.1009C9.12689 44.4626 9.99025 45.6488 11.1501 46.4885L15.1401 49.386C15.8613 49.911 16.3888 50.636 16.6638 51.4835L17.3413 53.5685L9.75005 66.0747C9.00005 67.3122 8.97505 68.7872 9.67505 70.0497C10.3876 71.2997 11.6626 72.0497 13.1126 72.0622L19.6501 72.0747L22.6876 77.8747C23.0046 78.499 23.4845 79.026 24.0763 79.4C24.6682 79.7741 25.3501 79.9813 26.0501 79.9997H26.1876C27.5751 79.9997 28.8126 79.2997 29.5376 78.0997L37.3288 65.2797C38.1709 65.6507 39.0799 65.8455 40.0001 65.8522C40.9238 65.8456 41.8364 65.6495 42.6813 65.276L50.4626 78.0997C51.1875 79.2997 52.4376 79.9997 53.8251 79.9997H53.9501C55.3876 79.9497 56.6501 79.1622 57.3125 77.8872L60.3501 72.0747L66.9001 72.0622C67.5981 72.0605 68.2831 71.8732 68.8849 71.5196C69.4868 71.1659 69.9838 70.6587 70.3251 70.0497C71.0251 68.7872 71.0001 67.3122 70.2501 66.0747L62.6588 53.5685L63.3351 51.486C63.6066 50.6413 64.1409 49.9068 64.8601 49.3872ZM27.3376 76.7622C26.9626 77.3747 26.3626 77.4122 26.1376 77.4247C25.9001 77.4122 25.3001 77.3247 24.9751 76.6872L21.5876 70.1872C21.3626 69.7622 20.9251 69.4997 20.4376 69.4997L13.1126 69.4747C12.4001 69.4747 12.0501 68.9872 11.9251 68.7872C11.8126 68.5747 11.5876 68.0247 11.9501 67.4122L18.4251 56.7485C18.9426 57.9663 19.807 59.005 20.9105 59.7352C22.0141 60.4653 23.3081 60.8547 24.6313 60.8547H29.5626C30.4526 60.8547 31.3063 61.1322 32.0276 61.656L35.1401 63.9185L27.3376 76.7622ZM37.5338 62.4672L33.5438 59.5697C32.388 58.7261 30.9935 58.2725 29.5626 58.2747H24.6313C23.745 58.2763 22.881 57.9965 22.1639 57.4755C21.4469 56.9546 20.9137 56.2194 20.6413 55.376L19.1176 50.6872C18.6788 49.3244 17.816 48.1375 16.6551 47.2997L12.6676 44.4022C11.9493 43.8819 11.4147 43.1472 11.1407 42.3037C10.8666 41.4602 10.8673 40.5515 11.1426 39.7085L12.6676 35.0197C13.1124 33.6593 13.1124 32.1926 12.6676 30.8322L11.1426 26.1447C10.8672 25.3018 10.8665 24.3933 11.1405 23.55C11.4146 22.7067 11.9493 21.9722 12.6676 21.4522L16.6551 18.5535C17.8151 17.7147 18.6776 16.5282 19.1176 15.166L20.6413 10.476C20.9137 9.63253 21.4469 8.89737 22.1639 8.37641C22.881 7.85545 23.745 7.57561 24.6313 7.57721H29.5626C30.9941 7.5805 32.3893 7.12682 33.5451 6.28221L37.5338 3.38596C38.2503 2.86364 39.114 2.5822 40.0007 2.5822C40.8873 2.5822 41.7511 2.86364 42.4676 3.38596L46.4551 6.28221C47.6109 7.12674 49.0061 7.58041 50.4375 7.57721H55.3675C56.254 7.57573 57.1181 7.8556 57.8353 8.37652C58.5526 8.89744 59.086 9.63253 59.3588 10.476L60.8813 15.1685C61.323 16.5291 62.1853 17.7143 63.3438 18.5535L67.3313 21.4535C68.0491 21.9733 68.5834 22.7074 68.8575 23.5502C69.1315 24.3929 69.1311 25.3009 68.8563 26.1435L67.3313 30.8322C66.8863 32.193 66.8863 33.6602 67.3313 35.021L68.8563 39.7085C69.1312 40.5516 69.1316 41.4601 68.8576 42.3035C68.5836 43.1469 68.0492 43.8817 67.3313 44.4022L63.3438 47.2997C62.184 48.1386 61.3214 49.3251 60.8813 50.6872L59.3588 55.3747C59.0862 56.2183 58.5528 56.9535 57.8355 57.4744C57.1182 57.9954 56.2541 58.2751 55.3675 58.2735H50.4375C49.0058 58.2714 47.6106 58.7249 46.4538 59.5685L42.4663 62.4672C41.7494 62.988 40.8861 63.2685 40.0001 63.2685C39.114 63.2685 38.2507 62.988 37.5338 62.4672ZM68.0751 68.7872C67.9501 68.9872 67.6125 69.4747 66.8876 69.4747L59.5626 69.4997C59.0751 69.4997 58.6376 69.7622 58.4251 70.1872L55.0251 76.6872C54.7001 77.3247 54.1125 77.4122 53.875 77.4247C53.625 77.4122 53.0376 77.3747 52.6626 76.7622L44.8676 63.9122L47.9713 61.656C48.6877 61.1344 49.5514 60.8542 50.4375 60.856H55.3675C56.6909 60.8556 57.9849 60.466 59.0885 59.7357C60.192 59.0053 61.0563 57.9665 61.5738 56.7485L68.05 67.4122C68.4126 68.0247 68.1875 68.5747 68.0751 68.7872ZM40.0001 58.066C26.1376 58.066 14.8626 46.7885 14.8626 32.926C14.8626 19.0622 26.1376 7.78721 40.0001 7.78721C53.8626 7.78721 65.1401 19.0635 65.1401 32.9247C65.1401 46.7872 53.8626 58.066 40.0001 58.066ZM40.0001 10.3672C27.5613 10.3672 17.4426 20.4872 17.4426 32.926C17.4426 45.3647 27.5613 55.4847 40.0001 55.4847C52.4388 55.4847 62.5601 45.3647 62.5601 32.926C62.5601 20.4872 52.4376 10.3672 40.0001 10.3672ZM32.6826 47.7872C31.8341 47.7862 31.008 47.5152 30.3238 47.0135C29.7086 46.5716 29.2317 45.9638 28.9488 45.261C28.666 44.5583 28.5888 43.7896 28.7263 43.0447L29.8138 37.001L25.3813 32.7485C24.2576 31.6722 23.8576 30.0822 24.3388 28.601C24.8201 27.1197 26.0788 26.0697 27.6201 25.8585L33.7051 25.0247L36.3788 19.4947C36.7054 18.8117 37.2192 18.2355 37.8605 17.8332C38.5018 17.4308 39.2442 17.219 40.0013 17.2222C40.7582 17.2192 41.5015 17.4312 42.1426 17.8335C42.7837 18.2358 43.2973 18.8119 43.6238 19.4947V19.496L46.2988 25.0247L52.3838 25.8585C53.1338 25.958 53.8401 26.2685 54.4206 26.7538C55.001 27.2391 55.4317 27.8792 55.6626 28.5997C55.9002 29.3187 55.9288 30.0904 55.7452 30.8251C55.5615 31.5597 55.1731 32.2271 54.6251 32.7497L50.1876 36.9997L51.2775 43.0447C51.4146 43.7896 51.3372 44.5582 51.0544 45.2608C50.7716 45.9634 50.295 46.5712 49.6801 47.0135C49.07 47.4622 48.3447 47.7278 47.5891 47.7792C46.8335 47.8305 46.079 47.6655 45.4138 47.3035L40.0001 44.4022L34.5876 47.3022C34.0022 47.6194 33.347 47.7856 32.6813 47.786L32.6826 47.7872ZM40.0001 19.801C39.7277 19.7972 39.4601 19.8723 39.2295 20.0171C38.9989 20.1619 38.815 20.3703 38.7001 20.6172L35.7251 26.771C35.5376 27.1585 35.1676 27.4285 34.7401 27.4872L27.9701 28.4147C27.4076 28.491 26.9676 28.8585 26.7926 29.3972C26.6176 29.936 26.7576 30.4922 27.1676 30.8847L32.0988 35.616C32.4101 35.9147 32.5526 36.3497 32.4751 36.7747L31.2663 43.5022C31.1651 44.0585 31.3788 44.5897 31.8376 44.926C32.0555 45.0888 32.3158 45.1852 32.5872 45.2036C32.8587 45.222 33.1296 45.1616 33.3676 45.0297L39.3901 41.801C39.7713 41.5947 40.2301 41.5947 40.6101 41.801L46.6313 45.0297C46.8692 45.1616 47.1402 45.222 47.4116 45.2036C47.683 45.1852 47.9434 45.0888 48.1613 44.926C48.6226 44.591 48.8363 44.0585 48.7363 43.4997L47.5263 36.7747C47.4513 36.3497 47.5913 35.9147 47.9038 35.616L52.8363 30.886C53.0346 30.6999 53.175 30.4606 53.2406 30.1968C53.3063 29.9329 53.2943 29.6557 53.2063 29.3985C53.126 29.1387 52.9724 28.9077 52.764 28.7332C52.5555 28.5587 52.3011 28.4481 52.0313 28.4147L45.2613 27.4872C45.0508 27.4579 44.8506 27.3773 44.6786 27.2524C44.5066 27.1275 44.368 26.9621 44.2751 26.771L41.3001 20.6172C41.1848 20.3708 41.0011 20.1628 40.7708 20.018C40.5404 19.8733 40.2721 19.7979 40.0001 19.801Z" fill="black"/>
</g>
<defs>
<clipPath id="clip0_2265_3569">
<rect width="80" height="80" fill="white"/>
</clipPath>
</defs>
</svg>
