<svg width="272" height="70" viewBox="0 0 272 70" fill="none" xmlns="http://www.w3.org/2000/svg">
<path d="M95.84 49.4C93.36 49.4 91.28 49.04 89.6 48.32C87.9467 47.5733 86.68 46.6133 85.8 45.44C84.9467 44.24 84.4933 42.9867 84.44 41.68C84.44 41.44 84.52 41.24 84.68 41.08C84.84 40.92 85.04 40.84 85.28 40.84H88.84C89.1867 40.84 89.44 40.92 89.6 41.08C89.7867 41.2133 89.9467 41.3867 90.08 41.6C90.24 42.1067 90.5467 42.6133 91 43.12C91.4533 43.6 92.0667 44 92.84 44.32C93.64 44.64 94.64 44.8 95.84 44.8C97.76 44.8 99.1867 44.48 100.12 43.84C101.08 43.2 101.56 42.3333 101.56 41.24C101.56 40.4667 101.307 39.8533 100.8 39.4C100.293 38.92 99.5067 38.4933 98.44 38.12C97.4 37.72 96.0133 37.3067 94.28 36.88C92.28 36.4 90.6 35.8267 89.24 35.16C87.9067 34.4667 86.8933 33.6 86.2 32.56C85.5333 31.52 85.2 30.2 85.2 28.6C85.2 27.0533 85.6133 25.68 86.44 24.48C87.2933 23.28 88.4933 22.3333 90.04 21.64C91.6133 20.9467 93.48 20.6 95.64 20.6C97.3733 20.6 98.9067 20.84 100.24 21.32C101.573 21.7733 102.68 22.3867 103.56 23.16C104.44 23.9067 105.107 24.72 105.56 25.6C106.04 26.4533 106.293 27.2933 106.32 28.12C106.32 28.3333 106.24 28.5333 106.08 28.72C105.947 28.88 105.747 28.96 105.48 28.96H101.76C101.547 28.96 101.333 28.9067 101.12 28.8C100.907 28.6933 100.733 28.4933 100.6 28.2C100.44 27.3733 99.92 26.6667 99.04 26.08C98.16 25.4933 97.0267 25.2 95.64 25.2C94.2 25.2 93.04 25.4667 92.16 26C91.28 26.5333 90.84 27.36 90.84 28.48C90.84 29.2267 91.0533 29.8533 91.48 30.36C91.9333 30.84 92.64 31.2667 93.6 31.64C94.5867 32.0133 95.88 32.4133 97.48 32.84C99.7467 33.3467 101.6 33.9333 103.04 34.6C104.48 35.2667 105.533 36.12 106.2 37.16C106.867 38.1733 107.2 39.4667 107.2 41.04C107.2 42.8 106.72 44.3067 105.76 45.56C104.827 46.7867 103.507 47.7333 101.8 48.4C100.093 49.0667 98.1067 49.4 95.84 49.4ZM122.584 49.4C120.104 49.4 117.997 48.9733 116.264 48.12C114.557 47.24 113.251 46 112.344 44.4C111.437 42.7733 110.931 40.8267 110.824 38.56C110.797 37.4667 110.784 36.2933 110.784 35.04C110.784 33.7867 110.797 32.5867 110.824 31.44C110.931 29.2 111.437 27.2667 112.344 25.64C113.277 24.0133 114.597 22.7733 116.304 21.92C118.037 21.04 120.131 20.6 122.584 20.6C124.397 20.6 126.024 20.84 127.464 21.32C128.904 21.8 130.131 22.4667 131.144 23.32C132.157 24.1467 132.944 25.12 133.504 26.24C134.064 27.36 134.357 28.5733 134.384 29.88C134.411 30.12 134.331 30.32 134.144 30.48C133.984 30.64 133.784 30.72 133.544 30.72H129.744C129.451 30.72 129.211 30.6533 129.024 30.52C128.837 30.36 128.704 30.1067 128.624 29.76C128.197 28 127.464 26.8 126.424 26.16C125.384 25.52 124.091 25.2 122.544 25.2C120.757 25.2 119.331 25.7067 118.264 26.72C117.197 27.7067 116.624 29.3467 116.544 31.64C116.464 33.8267 116.464 36.0667 116.544 38.36C116.624 40.6533 117.197 42.3067 118.264 43.32C119.331 44.3067 120.757 44.8 122.544 44.8C124.091 44.8 125.384 44.48 126.424 43.84C127.464 43.1733 128.197 41.9733 128.624 40.24C128.704 39.8667 128.837 39.6133 129.024 39.48C129.211 39.3467 129.451 39.28 129.744 39.28H133.544C133.784 39.28 133.984 39.36 134.144 39.52C134.331 39.68 134.411 39.88 134.384 40.12C134.357 41.4267 134.064 42.64 133.504 43.76C132.944 44.88 132.157 45.8667 131.144 46.72C130.131 47.5467 128.904 48.2 127.464 48.68C126.024 49.16 124.397 49.4 122.584 49.4ZM149.888 49.4C147.514 49.4 145.474 49.0133 143.768 48.24C142.061 47.44 140.728 46.2267 139.768 44.6C138.808 42.9467 138.288 40.8933 138.208 38.44C138.181 37.2933 138.168 36.16 138.168 35.04C138.168 33.92 138.181 32.7733 138.208 31.6C138.288 29.1733 138.821 27.1467 139.808 25.52C140.794 23.8933 142.141 22.6667 143.848 21.84C145.581 21.0133 147.594 20.6 149.888 20.6C152.181 20.6 154.194 21.0133 155.928 21.84C157.661 22.6667 159.021 23.8933 160.008 25.52C160.994 27.1467 161.528 29.1733 161.608 31.6C161.661 32.7733 161.688 33.92 161.688 35.04C161.688 36.16 161.661 37.2933 161.608 38.44C161.528 40.8933 161.008 42.9467 160.048 44.6C159.088 46.2267 157.741 47.44 156.008 48.24C154.301 49.0133 152.261 49.4 149.888 49.4ZM149.888 44.8C151.621 44.8 153.034 44.2933 154.128 43.28C155.221 42.24 155.808 40.56 155.888 38.24C155.941 37.0667 155.968 35.9867 155.968 35C155.968 33.9867 155.941 32.9067 155.888 31.76C155.834 30.2133 155.541 28.96 155.008 28C154.501 27.0133 153.808 26.3067 152.928 25.88C152.048 25.4267 151.034 25.2 149.888 25.2C148.768 25.2 147.768 25.4267 146.888 25.88C146.008 26.3067 145.301 27.0133 144.768 28C144.261 28.96 143.981 30.2133 143.928 31.76C143.901 32.9067 143.888 33.9867 143.888 35C143.888 35.9867 143.901 37.0667 143.928 38.24C144.008 40.56 144.594 42.24 145.688 43.28C146.781 44.2933 148.181 44.8 149.888 44.8ZM177.041 49C176.774 49 176.548 48.9067 176.361 48.72C176.174 48.5333 176.081 48.3067 176.081 48.04V22C176.081 21.7067 176.174 21.4667 176.361 21.28C176.548 21.0933 176.774 21 177.041 21H187.761C189.841 21 191.654 21.3333 193.201 22C194.748 22.64 195.948 23.6267 196.801 24.96C197.654 26.2667 198.081 27.9067 198.081 29.88C198.081 31.88 197.654 33.5333 196.801 34.84C195.948 36.12 194.748 37.08 193.201 37.72C191.654 38.36 189.841 38.68 187.761 38.68H181.801V48.04C181.801 48.3067 181.708 48.5333 181.521 48.72C181.361 48.9067 181.134 49 180.841 49H177.041ZM181.721 34.24H187.561C189.108 34.24 190.294 33.88 191.121 33.16C191.948 32.4133 192.361 31.32 192.361 29.88C192.361 28.5467 191.974 27.48 191.201 26.68C190.428 25.8533 189.214 25.44 187.561 25.44H181.721V34.24ZM202.968 49C202.701 49 202.475 48.9067 202.288 48.72C202.101 48.5333 202.008 48.3067 202.008 48.04V21.56C202.008 21.2933 202.101 21.0667 202.288 20.88C202.475 20.6933 202.701 20.6 202.968 20.6H206.288C206.555 20.6 206.781 20.6933 206.968 20.88C207.155 21.0667 207.248 21.2933 207.248 21.56V48.04C207.248 48.3067 207.155 48.5333 206.968 48.72C206.781 48.9067 206.555 49 206.288 49H202.968ZM221.754 49.4C219.621 49.4 217.821 49.0267 216.354 48.28C214.914 47.5333 213.807 46.48 213.034 45.12C212.287 43.76 211.861 42.1733 211.754 40.36C211.727 39.88 211.714 39.2933 211.714 38.6C211.714 37.9067 211.727 37.32 211.754 36.84C211.861 35 212.301 33.4133 213.074 32.08C213.874 30.72 214.994 29.6667 216.434 28.92C217.901 28.1733 219.674 27.8 221.754 27.8C223.834 27.8 225.594 28.1733 227.034 28.92C228.501 29.6667 229.621 30.72 230.394 32.08C231.194 33.4133 231.647 35 231.754 36.84C231.781 37.32 231.794 37.9067 231.794 38.6C231.794 39.2933 231.781 39.88 231.754 40.36C231.647 42.1733 231.207 43.76 230.434 45.12C229.687 46.48 228.581 47.5333 227.114 48.28C225.674 49.0267 223.887 49.4 221.754 49.4ZM221.754 45.44C223.167 45.44 224.261 45 225.034 44.12C225.807 43.2133 226.234 41.8933 226.314 40.16C226.341 39.76 226.354 39.24 226.354 38.6C226.354 37.96 226.341 37.44 226.314 37.04C226.234 35.3333 225.807 34.0267 225.034 33.12C224.261 32.2133 223.167 31.76 221.754 31.76C220.341 31.76 219.247 32.2133 218.474 33.12C217.701 34.0267 217.274 35.3333 217.194 37.04C217.167 37.44 217.154 37.96 217.154 38.6C217.154 39.24 217.167 39.76 217.194 40.16C217.274 41.8933 217.701 43.2133 218.474 44.12C219.247 45 220.341 45.44 221.754 45.44ZM245.47 49C243.87 49 242.523 48.72 241.43 48.16C240.336 47.6 239.523 46.7733 238.99 45.68C238.456 44.56 238.19 43.1733 238.19 41.52V32.44H235.03C234.763 32.44 234.536 32.3467 234.35 32.16C234.163 31.9733 234.07 31.7467 234.07 31.48V29.16C234.07 28.8933 234.163 28.6667 234.35 28.48C234.536 28.2933 234.763 28.2 235.03 28.2H238.19V21.56C238.19 21.2933 238.27 21.0667 238.43 20.88C238.616 20.6933 238.856 20.6 239.15 20.6H242.39C242.656 20.6 242.883 20.6933 243.07 20.88C243.256 21.0667 243.35 21.2933 243.35 21.56V28.2H248.35C248.616 28.2 248.843 28.2933 249.03 28.48C249.216 28.6667 249.31 28.8933 249.31 29.16V31.48C249.31 31.7467 249.216 31.9733 249.03 32.16C248.843 32.3467 248.616 32.44 248.35 32.44H243.35V41.12C243.35 42.2133 243.536 43.0667 243.91 43.68C244.31 44.2933 244.99 44.6 245.95 44.6H248.71C248.976 44.6 249.203 44.6933 249.39 44.88C249.576 45.0667 249.67 45.2933 249.67 45.56V48.04C249.67 48.3067 249.576 48.5333 249.39 48.72C249.203 48.9067 248.976 49 248.71 49H245.47ZM261.098 49.4C259.498 49.4 258.125 49.2133 256.978 48.84C255.858 48.4667 254.938 48 254.218 47.44C253.498 46.88 252.965 46.32 252.618 45.76C252.271 45.2 252.085 44.7333 252.058 44.36C252.031 44.0667 252.111 43.84 252.298 43.68C252.511 43.4933 252.738 43.4 252.978 43.4H256.138C256.245 43.4 256.338 43.4133 256.418 43.44C256.498 43.4667 256.605 43.5467 256.738 43.68C257.085 43.9733 257.445 44.28 257.818 44.6C258.218 44.92 258.685 45.2 259.218 45.44C259.751 45.6533 260.418 45.76 261.218 45.76C262.258 45.76 263.125 45.56 263.818 45.16C264.538 44.7333 264.898 44.1333 264.898 43.36C264.898 42.8 264.738 42.3467 264.418 42C264.125 41.6533 263.565 41.3467 262.738 41.08C261.911 40.7867 260.738 40.48 259.218 40.16C257.725 39.8133 256.485 39.3733 255.498 38.84C254.511 38.3067 253.778 37.64 253.298 36.84C252.818 36.04 252.578 35.1067 252.578 34.04C252.578 33 252.885 32.0133 253.498 31.08C254.138 30.12 255.071 29.3333 256.298 28.72C257.551 28.1067 259.098 27.8 260.938 27.8C262.378 27.8 263.631 27.9867 264.698 28.36C265.765 28.7067 266.645 29.1467 267.338 29.68C268.058 30.2133 268.605 30.76 268.978 31.32C269.351 31.8533 269.551 32.32 269.578 32.72C269.605 33.0133 269.525 33.2533 269.338 33.44C269.151 33.6 268.938 33.68 268.698 33.68H265.738C265.605 33.68 265.485 33.6533 265.378 33.6C265.271 33.5467 265.165 33.48 265.058 33.4C264.765 33.1333 264.445 32.8533 264.098 32.56C263.751 32.2667 263.325 32.0133 262.818 31.8C262.338 31.56 261.698 31.44 260.898 31.44C259.885 31.44 259.111 31.6667 258.578 32.12C258.045 32.5467 257.778 33.0933 257.778 33.76C257.778 34.2133 257.898 34.6133 258.138 34.96C258.405 35.28 258.925 35.5867 259.698 35.88C260.471 36.1733 261.645 36.48 263.218 36.8C265.005 37.12 266.418 37.6 267.458 38.24C268.525 38.8533 269.271 39.5733 269.698 40.4C270.151 41.2 270.378 42.0933 270.378 43.08C270.378 44.28 270.018 45.36 269.298 46.32C268.605 47.28 267.565 48.04 266.178 48.6C264.818 49.1333 263.125 49.4 261.098 49.4Z" fill="white"/>
<circle cx="35" cy="35" r="35" fill="white"/>
<path d="M54.1691 21.1346C54.1691 25.0654 54.0614 28.2692 53.9268 28.2692C53.5768 28.2692 41.6499 21.35 41.6499 21.1346C41.6499 20.9462 53.6307 14 53.9807 14C54.0884 14 54.1691 17.2038 54.1691 21.1346ZM20.8114 22.3462C22.3461 23.5577 22.023 23.3962 35.1884 29.2115C40.7884 31.7154 46.0922 34.1385 46.9807 34.65C49.2153 35.9692 51.7999 38.5 52.7691 40.3308C53.8191 42.2962 54.223 44.6385 53.873 46.9538C53.6845 48.4077 52.9037 50.9385 52.3922 51.7462C52.3114 51.8808 51.773 51.2615 51.2345 50.4C50.2922 48.9462 48.8114 47.5462 47.1691 46.55C46.7922 46.3077 41.5153 43.9385 35.4307 41.2462C29.3461 38.5808 23.6114 35.9423 22.6961 35.4038C17.5538 32.3885 14.9961 27.8923 15.6961 23.0462C15.8845 21.5923 16.6653 19.0615 17.1768 18.2538C17.2576 18.1192 17.823 18.7654 18.4153 19.6808C19.0345 20.5692 20.1114 21.7808 20.8114 22.3462ZM21.8614 45.1769C25.1461 47.0885 27.8384 48.7308 27.8384 48.8654C27.8384 49.0808 15.9922 56 15.6153 56C15.4807 56 15.3999 52.7962 15.3999 48.8654C15.3999 44.7462 15.5076 41.7308 15.6422 41.7308C15.7768 41.7308 18.5768 43.2923 21.8614 45.1769Z" fill="#272727"/>
</svg>
