<svg width="28" height="20" viewBox="0 0 28 20" fill="none" xmlns="http://www.w3.org/2000/svg">
<path d="M26.6924 11.154H1.30766C0.670734 11.154 0.153809 10.6371 0.153809 10.0001C0.153809 9.36322 0.670734 8.84629 1.30766 8.84629H26.6924C27.3293 8.84629 27.8462 9.36322 27.8462 10.0001C27.8462 10.6371 27.3293 11.154 26.6924 11.154ZM26.6924 2.3077H1.30766C0.670734 2.3077 0.153809 1.79078 0.153809 1.15385C0.153809 0.516926 0.670734 0 1.30766 0H26.6924C27.3293 0 27.8462 0.516926 27.8462 1.15385C27.8462 1.79078 27.3293 2.3077 26.6924 2.3077ZM26.6924 20H1.30766C0.670734 20 0.153809 19.4831 0.153809 18.8461C0.153809 18.2092 0.670734 17.6923 1.30766 17.6923H26.6924C27.3293 17.6923 27.8462 18.2092 27.8462 18.8461C27.8462 19.4831 27.3293 20 26.6924 20Z" fill="white"/>
</svg>
