<svg width="50" height="50" viewBox="0 0 50 50" fill="none" xmlns="http://www.w3.org/2000/svg">
<circle cx="25" cy="25" r="25" fill="white"/>
<path d="M9.98394 34.7796C9.34445 35.3062 9.25297 36.2516 9.7796 36.8911C10.3062 37.5305 11.2516 37.622 11.8911 37.0954L9.98394 34.7796ZM38.993 14.207C39.0728 13.3824 38.4691 12.6493 37.6445 12.5695L24.2073 11.2691C23.3827 11.1893 22.6495 11.7931 22.5697 12.6176C22.49 13.4422 23.0937 14.1754 23.9183 14.2551L35.8625 15.411L34.7066 27.3552C34.6268 28.1798 35.2306 28.913 36.0551 28.9928C36.8797 29.0725 37.6128 28.4688 37.6926 27.6442L38.993 14.207ZM11.8911 37.0954L38.4536 15.2204L36.5464 12.9046L9.98394 34.7796L11.8911 37.0954Z" fill="black"/>
</svg>
